<svg viewBox="0 0 512 512" xmlns="http://www.w3.org/2000/svg">
  <defs>
    <radialGradient id="bg" cx="50%" cy="0%" r="100%">
      <stop offset="0%" stop-color="#1E293B"/>
      <stop offset="100%" stop-color="#020617"/>
    </radialGradient>
    <linearGradient id="neon" x1="0" y1="0" x2="1" y2="0">
      <stop offset="0%" stop-color="#38EF7D"/>
      <stop offset="100%" stop-color="#11998E"/>
    </linearGradient>
    <linearGradient id="gold" x1="0" y1="0" x2="1" y2="1">
      <stop offset="0%" stop-color="#FBBF24"/>
      <stop offset="100%" stop-color="#D97706"/>
    </linearGradient>
  </defs>

  <g transform="translate(256,256) scale(0.66) translate(-256,-256)">
    <circle cx="256" cy="256" r="256" fill="url(#bg)" />
    <path d="M 136 150 A 180 180 0 0 1 376 150" fill="none" stroke="url(#neon)" stroke-width="24" stroke-linecap="round" opacity="0.4" />
    <path d="M 186 200 A 110 110 0 0 1 326 200" fill="none" stroke="url(#neon)" stroke-width="24" stroke-linecap="round" />
    <rect x="180" y="380" width="32" height="24" rx="12" fill="#64748B" />
    <rect x="300" y="380" width="32" height="24" rx="12" fill="#64748B" />
    <rect x="156" y="230" width="200" height="164" rx="48" fill="#FFFFFF" />
    <rect x="176" y="254" width="160" height="72" rx="24" fill="#0F172A" />
    <circle cx="256" cy="358" r="14" fill="url(#gold)" />
  </g>
</svg>
